<?xml version="1.0" encoding="utf-8"?>
<!-- Generator: Adobe Illustrator 25.4.1, SVG Export Plug-In . SVG Version: 6.00 Build 0)  -->
<svg version="1.1" id="Layer_1" xmlns="http://www.w3.org/2000/svg" xmlns:xlink="http://www.w3.org/1999/xlink" x="0px" y="0px"
	 viewBox="0 0 800 800" style="enable-background:new 0 0 800 800;" xml:space="preserve">
<style type="text/css">
	.st0{fill:none;stroke:#1F2526;stroke-width:48;stroke-linecap:round;stroke-linejoin:round;stroke-miterlimit:128;}
	.st1{fill:#1F2526;}
</style>
<path class="st0" d="M278,64h244c67.4,0,122,50.1,122,112v448c0,61.9-54.6,112-122,112H278c-67.4,0-122-50.1-122-112V176
	C156,114.1,210.6,64,278,64z"/>
<path class="st1" d="M400,676c-11,0-21.6-4.3-29.3-11.9c-7.8-7.6-12.2-17.9-12.2-28.6c0-8,2.4-15.8,7-22.5
	c4.6-6.7,11-11.9,18.6-14.9c7.6-3.1,15.9-3.9,24-2.3c8.1,1.6,15.4,5.4,21.2,11.1c5.8,5.7,9.8,12.9,11.4,20.7
	c1.6,7.9,0.8,16-2.4,23.4c-3.1,7.4-8.5,13.7-15.3,18.2C416.2,673.6,408.2,676,400,676z"/>
</svg>
