<?xml version="1.0" encoding="utf-8"?>
<!-- Generator: Adobe Illustrator 25.4.1, SVG Export Plug-In . SVG Version: 6.00 Build 0)  -->
<svg version="1.1" id="Layer_1" xmlns="http://www.w3.org/2000/svg" xmlns:xlink="http://www.w3.org/1999/xlink" x="0px" y="0px"
	 viewBox="0 0 59 46" style="enable-background:new 0 0 59 46;" xml:space="preserve">
<style type="text/css">
	.st0{fill:#1F2526;stroke:url(#SVGID_1_);}
	.st1{fill:#1F2526;stroke:url(#SVGID_00000113336738137368083810000005732017843504024473_);}
	.st2{fill:#1F2526;stroke:url(#SVGID_00000021082423098242125420000005123605487444836793_);}
	.st3{fill:#1F2526;stroke:url(#SVGID_00000020377902317412042790000010434936675303481248_);}
</style>
<linearGradient id="SVGID_1_" gradientUnits="userSpaceOnUse" x1="2.8353" y1="22.4975" x2="72.6627" y2="27.1847" gradientTransform="matrix(1 0 0 1 0 -2)">
	<stop  offset="0" style="stop-color:#FCFCFC"/>
	<stop  offset="1" style="stop-color:#FCFCFC;stop-opacity:0"/>
</linearGradient>
<path class="st0" d="M3.8,19L14.9,27c2.2,1.2,8.9,4.5,17.6,3.1c6.5-1,10.9-4.2,12.9-5.8c0.1,0.8,0.6,7.3-4.5,12
	C36.9,40,32.1,40,31,40c3.1,1.7,6.2,3.3,9.3,5l12.5-16.4l4.3-5.6l-4.3-5.6L40.3,1c-3.6,1.4-7.2,2.8-10.8,4.1C30,5,35.6,4,39.8,8.1
	c3.3,3.3,3.4,7.5,3.4,8.2c-3.1,2-8.2,4.8-15,6C16.7,24.4,7.4,20.7,3.8,19z"/>
<linearGradient id="SVGID_00000148624016008198563720000014760051986205623435_" gradientUnits="userSpaceOnUse" x1="31.1875" y1="33.8125" x2="31.1875" y2="33.8125">
	<stop  offset="0" style="stop-color:#FCFCFC"/>
	<stop  offset="1" style="stop-color:#FCFCFC;stop-opacity:0"/>
</linearGradient>
<path style="fill:#1F2526;stroke:url(#SVGID_00000148624016008198563720000014760051986205623435_);" d="M31.2,33.8"/>
<linearGradient id="SVGID_00000004527607303358063870000003443995235872314543_" gradientUnits="userSpaceOnUse" x1="30.625" y1="35.875" x2="30.625" y2="35.875">
	<stop  offset="0" style="stop-color:#FCFCFC"/>
	<stop  offset="1" style="stop-color:#FCFCFC;stop-opacity:0"/>
</linearGradient>
<path style="fill:#1F2526;stroke:url(#SVGID_00000004527607303358063870000003443995235872314543_);" d="M30.6,35.9"/>
<linearGradient id="SVGID_00000101093125766997498710000000010892395034143107_" gradientUnits="userSpaceOnUse" x1="29.5" y1="37.75" x2="29.5" y2="37.75">
	<stop  offset="0" style="stop-color:#FCFCFC"/>
	<stop  offset="1" style="stop-color:#FCFCFC;stop-opacity:0"/>
</linearGradient>
<path style="fill:#1F2526;stroke:url(#SVGID_00000101093125766997498710000000010892395034143107_);" d="M29.5,37.8"/>
</svg>
