<?xml version="1.0" encoding="utf-8"?>
<!-- Generator: Adobe Illustrator 25.4.1, SVG Export Plug-In . SVG Version: 6.00 Build 0)  -->
<svg version="1.1" id="Layer_1" xmlns="http://www.w3.org/2000/svg" xmlns:xlink="http://www.w3.org/1999/xlink" x="0px" y="0px"
	 viewBox="0 0 800 800" style="enable-background:new 0 0 800 800;" xml:space="preserve">
<style type="text/css">
	.st0{fill:#4F6F73;stroke:#4F6F73;stroke-width:17;stroke-miterlimit:10;}
</style>
<g id="_x32_5_attachment">
</g>
<g id="_x32_4_office">
</g>
<g id="_x32_3_pin">
</g>
<g id="_x32_2_business_card">
</g>
<g id="_x32_1_form">
</g>
<g id="_x32_0_headset">
</g>
<g id="_x31_9_video_call">
</g>
<g id="_x31_8_letter_box">
</g>
<g id="_x31_7_papperplane">
	<g>
		<g>
			<path class="st0" d="M787.4,32c-1-7.2-8.3-12.3-15.4-10.5L92.6,190.1c-4.4,1.1-7.9,4.5-9.1,8.9s0.1,9.1,3.4,12.2l174.2,167
				l-34.6,214.4c-1.3,8.4,6.2,15.7,14.5,14.3l226-39.2L681.8,689c1.9,1.1,4,1.6,6.1,1.6c1.9,0,3.8-0.4,5.6-1.3
				c3.7-1.8,6.3-5.4,6.8-9.5l87-644.4C787.5,34.2,787.5,33.1,787.4,32z M120.6,208.9L711.1,62.4L278.2,360L120.6,208.9z
				 M461.4,543.3l-207.4,36l31.2-193.8L735.8,75.8L461.4,543.3z M678,658.1L486.5,550L754.3,93.7L678,658.1z"/>
			<path class="st0" d="M180.5,645.1l-58.7,65.1c-4.6,5.1-4.2,13,0.9,17.7c2.4,2.2,5.4,3.2,8.4,3.2c3.4,0,6.8-1.4,9.3-4.1l58.7-65.1
				c4.6-5.1,4.2-13-0.9-17.7C193.1,639.6,185.2,640,180.5,645.1z"/>
			<path class="st0" d="M74.3,363.2l-58.6,65.1c-4.6,5.1-4.2,13,0.9,17.7c2.4,2.1,5.4,3.2,8.4,3.2c3.4,0,6.8-1.4,9.3-4.1L92.9,380
				c4.6-5.1,4.2-13-0.9-17.7C86.9,357.7,79,358.1,74.3,363.2z"/>
			<path class="st0" d="M510.2,692.9L451.6,758c-4.6,5.1-4.2,13,0.9,17.7c2.4,2.2,5.4,3.2,8.4,3.2c3.4,0,6.8-1.4,9.3-4.1l58.6-65.1
				c4.6-5.1,4.2-13-0.9-17.7C522.7,687.4,514.8,687.8,510.2,692.9z"/>
		</g>
	</g>
</g>
<g id="_x31_6_laptop">
</g>
<g id="_x31_5_connection">
</g>
<g id="_x31_4_phonebook">
</g>
<g id="_x31_3_classic_telephone">
</g>
<g id="_x31_2_sending_mail">
</g>
<g id="_x31_1_man_talking">
</g>
<g id="_x31_0_date">
</g>
<g id="_x30_9_review">
</g>
<g id="_x30_8_email">
</g>
<g id="_x30_7_information">
</g>
<g id="_x30_6_phone_talking">
</g>
<g id="_x30_5_women_talking">
</g>
<g id="_x30_4_calling">
</g>
<g id="_x30_3_women">
</g>
<g id="_x30_2_writing">
</g>
<g id="_x30_1_chatting">
</g>
</svg>
