<?xml version="1.0" encoding="utf-8"?>
<!-- Generator: Adobe Illustrator 25.4.1, SVG Export Plug-In . SVG Version: 6.00 Build 0)  -->
<svg version="1.1" id="Layer_1" xmlns="http://www.w3.org/2000/svg" xmlns:xlink="http://www.w3.org/1999/xlink" x="0px" y="0px"
	 viewBox="0 0 800 800" style="enable-background:new 0 0 800 800;" xml:space="preserve">
<style type="text/css">
	.st0{fill-rule:evenodd;clip-rule:evenodd;fill:#4F6F73;}
</style>
<g id="Page-1">
	<g id="icon" transform="translate(42.666667, 85.333333)">
		<path id="Combined-Shape" class="st0" d="M690.7,48v533.3H24V48H690.7z M624,114.7H90.7v400H624V114.7z M557.3,381.3v50H390.7v-50
			H557.3z M253.2,291.3c48.2,0,87.5,40,87.5,90h-200c0-50,39.2-90,87.5-90H253.2z M557.3,281.3v50H390.7v-50H557.3z M240.7,170.9
			c24.2,0,43.8,19.6,43.8,43.8s-19.6,43.7-43.8,43.7s-43.8-19.6-43.8-43.7S216.5,170.9,240.7,170.9z M557.3,181.3v50H390.7v-50
			H557.3z"/>
	</g>
</g>
</svg>
