<?xml version="1.0" encoding="utf-8"?>
<!-- Generator: Adobe Illustrator 25.4.1, SVG Export Plug-In . SVG Version: 6.00 Build 0)  -->
<svg version="1.1" id="Layer_1" xmlns="http://www.w3.org/2000/svg" xmlns:xlink="http://www.w3.org/1999/xlink" x="0px" y="0px"
	 viewBox="0 0 800 800" style="enable-background:new 0 0 800 800;" xml:space="preserve">
<style type="text/css">
	.st0{fill:#4F6F73;}
</style>
<g>
	<g>
		<g>
			<path class="st0" d="M702.9,521.9C663.4,480.2,616,450,566,433.5c49.8-44.9,81.1-109.9,81.1-182c0-135.2-110-245.2-245.2-245.2
				s-245.2,110-245.2,245.2c0,72.2,31.3,137.1,81.1,182c-50,16.5-97.4,46.8-136.9,88.4C37.2,589.2,2,676.5,2,767.5v38.7h800v-38.7
				C802,676.5,766.8,589.2,702.9,521.9z M234.3,251.4c0-92.5,75.2-167.7,167.7-167.7c92.5,0,167.7,75.2,167.7,167.7
				c0,92.5-75.2,167.7-167.7,167.7C309.5,419.2,234.3,343.9,234.3,251.4z M82.1,728.8c19.2-135.3,136.6-232.3,242.4-232.3h154.8
				c105.9,0,223.2,97,242.4,232.3L82.1,728.8L82.1,728.8z"/>
		</g>
	</g>
</g>
</svg>
